<svg width="400" height="400" viewBox="0 0 400 400" fill="none" xmlns="http://www.w3.org/2000/svg">
<g clip-path="url(#clip0_2_338)">
<rect width="400" height="400" rx="200" fill="#EDFFFB"/>
<path d="M137.083 288.032C127.675 288.032 119.387 286.389 112.219 283.104C105.051 279.819 99.5258 275.264 95.6431 269.44C91.7605 263.467 89.8191 256.597 89.8191 248.832C89.8191 242.261 91.1631 236.288 93.8511 230.912C96.6885 225.536 100.422 221.28 105.051 218.144C109.83 215.008 115.056 213.44 120.731 213.44C125.958 213.44 130.363 214.784 133.947 217.472C137.531 220.011 139.771 223.595 140.667 228.224C132.902 228.224 126.704 230.315 122.075 234.496C117.446 238.528 115.131 244.053 115.131 251.072C115.131 257.493 117.072 262.645 120.955 266.528C124.838 270.411 129.99 272.352 136.411 272.352C144.326 272.352 150.822 269.739 155.899 264.512C161.126 259.136 163.739 252.416 163.739 244.352C163.739 237.333 161.798 230.688 157.915 224.416C154.032 218.144 148.208 210.528 140.443 201.568C132.379 192.309 126.256 184.395 122.075 177.824C118.043 171.104 116.027 163.787 116.027 155.872C116.027 148.107 118.192 141.163 122.523 135.04C126.854 128.768 132.827 123.84 140.443 120.256C148.059 116.672 156.646 114.88 166.203 114.88C178.299 114.88 187.931 117.717 195.099 123.392C202.416 129.067 206.075 136.683 206.075 146.24C206.075 152.512 204.507 157.589 201.371 161.472C198.235 165.355 194.128 167.296 189.051 167.296C183.376 167.296 178.822 164.981 175.387 160.352C178.224 158.261 180.464 155.499 182.107 152.064C183.75 148.629 184.571 145.045 184.571 141.312C184.571 136.533 183.152 132.725 180.315 129.888C177.478 127.051 173.595 125.632 168.667 125.632C162.694 125.632 157.766 127.797 153.883 132.128C150.15 136.309 148.283 141.685 148.283 148.256C148.283 154.229 150 159.829 153.435 165.056C156.87 170.133 162.246 176.704 169.563 184.768C175.536 191.189 180.315 196.715 183.899 201.344C187.632 205.973 190.768 211.349 193.307 217.472C195.995 223.445 197.339 229.941 197.339 236.96C197.339 246.517 194.651 255.179 189.275 262.944C184.048 270.709 176.806 276.832 167.547 281.312C158.438 285.792 148.283 288.032 137.083 288.032ZM276.929 135.712H274.241C260.95 135.712 250.572 139.072 243.105 145.792C235.788 152.363 232.129 164.085 232.129 180.96C232.129 186.485 232.652 190.368 233.697 192.608C234.742 194.699 235.265 195.893 235.265 196.192C227.201 196.192 221.153 194.549 217.121 191.264C213.238 187.829 211.297 182.229 211.297 174.464C211.297 163.861 213.91 154.229 219.137 145.568C224.364 136.757 232.652 129.664 244.001 124.288C255.5 118.912 270.06 116.224 287.681 116.224C297.537 116.224 308.14 117.12 319.489 118.912C329.046 120.555 337.558 121.376 345.025 121.376C354.582 121.376 363.244 119.808 371.009 116.672C370.71 126.379 368.246 133.547 363.617 138.176C358.988 142.805 352.118 145.12 343.009 145.12C338.23 145.12 333.452 144.747 328.673 144C323.894 143.253 317.1 141.984 308.289 140.192L277.377 284H245.121L276.929 135.712Z" fill="#4F4F4F"/>
</g>
<defs>
<clipPath id="clip0_2_338">
<rect width="400" height="400" rx="200" fill="white"/>
</clipPath>
</defs>
</svg>
